<svg xmlns="http://www.w3.org/2000/svg" xmlns:xlink="http://www.w3.org/1999/xlink" version="1.1" x="0px" y="0px" viewBox="0 0 48 60" style="enable-background:new 0 0 48 48;" xml:space="preserve">
	<g>
		<g>
			<g>
				<path d="M12.5,36c-0.128,0-0.256-0.049-0.354-0.146c-0.195-0.194-0.195-0.512,0-0.707l23-23c0.194-0.195,0.512-0.195,0.707,0     c0.194,0.195,0.194,0.512,0,0.707l-23,23C12.756,35.951,12.628,36,12.5,36z" />
				<path d="M35.5,36c-0.128,0-0.256-0.049-0.354-0.146l-23-23c-0.195-0.195-0.195-0.512,0-0.707c0.194-0.195,0.512-0.195,0.707,0     l23,23c0.194,0.195,0.194,0.513,0,0.707C35.756,35.951,35.628,36,35.5,36z" />
			</g>
		</g>
		<path d="M24,48C10.768,48,0,37.232,0,24C0,10.767,10.768,0,24,0s24,10.767,24,24C48,37.232,37.232,48,24,48z M24,1   C11.316,1,1,11.318,1,24c0,12.682,10.316,23,23,23s23-10.318,23-23C47,11.318,36.684,1,24,1z" />
	</g>
</svg>