<?xml version="1.0" encoding="utf-8"?>
<!-- Generator: Adobe Illustrator 18.0.0, SVG Export Plug-In . SVG Version: 6.00 Build 0)  -->
<!DOCTYPE svg PUBLIC "-//W3C//DTD SVG 1.1//EN" "http://www.w3.org/Graphics/SVG/1.1/DTD/svg11.dtd">
<svg version="1.1" id="Layer_1" xmlns="http://www.w3.org/2000/svg" xmlns:xlink="http://www.w3.org/1999/xlink" x="0px" y="0px"
	 viewBox="0 0 48 48" enable-background="new 0 0 48 48" xml:space="preserve">
<g>
	<path fill="#FFC107" d="M21.7,17.3L0.5,39.3l7.4,7.6l21.2-22.1L21.7,17.3z"/>
	<path fill="#78909C" d="M47.5,23.4l-5.9-5.9c-1,0.9-2.5,0.4-2.9,0.1l-1.4-1.4c0.3-0.5,0.5-1,0.5-1.6c0-0.7-0.3-1.4-0.8-2l-3.6-3.7
		c0,0-0.1-0.1-0.1-0.1L32.6,8c-1.6-1.6-3-3.1-3.4-3.5c-3.2-3.3-14.7-3.4-16-3.4c0,0,0,0,0,0c-0.5,0-1,0-1,0v2.3c0,0,0.7,0.2,0.6,0.2
		c0.2,0.1,3.7,1.1,7.9,5.7c1.9,2.1,3.9,4.8,2.6,6.2c0,0-0.2,0.2-0.8,0.8c-0.1,0.1-0.1,0.1-0.1,0.2l-1.7,1.7l7.6,7.3l2-2.1
		c0,0,0,0,0,0l1.1-1.1l0,0c0,0.1,0.3,0.3,1.3,1.4c0.4,0.4,0.8,1.9-0.4,2.9c0.2,0.2,5.9,6.1,5.9,6.1L47.5,23.4z"/>
	<path fill="#546E7A" d="M41.6,17.5c-1,0.9-2.5,0.4-2.9,0.1l-1.4-1.4l-5.8,6.1c0.1,0.1,0.3,0.3,1.3,1.4c0.4,0.4,0.8,1.9-0.4,2.9
		L41.6,17.5z"/>
</g>
</svg>
