<?xml version="1.0" encoding="utf-8"?>
<!-- Generator: Adobe Illustrator 18.0.0, SVG Export Plug-In . SVG Version: 6.00 Build 0)  -->
<!DOCTYPE svg PUBLIC "-//W3C//DTD SVG 1.1//EN" "http://www.w3.org/Graphics/SVG/1.1/DTD/svg11.dtd">
<svg version="1.1" id="Layer_1" xmlns="http://www.w3.org/2000/svg" xmlns:xlink="http://www.w3.org/1999/xlink" x="0px" y="0px"
	 viewBox="0 0 48 48" enable-background="new 0 0 48 48" xml:space="preserve">
<circle fill="#EEEEEE" cx="24" cy="24" r="18.9"/>
<g>
	<path fill="#263238" d="M22.1,20.7c-1.8,1.1-2.4,3.4-1.3,5.2c1.1,1.8,3.4,2.4,5.2,1.4c1.8-1.1,2.4-3.4,1.3-5.2
		C26.2,20.3,23.9,19.7,22.1,20.7"/>
	<polygon fill="#263238" points="38.3,15.7 26.4,25.6 23.8,21.2 	"/>
</g>
<g>
	<rect x="0" y="22.7" fill="#FF1744" width="8.8" height="2.6"/>
	
		<rect x="5.5" y="28.8" transform="matrix(0.4699 0.8827 -0.8827 0.4699 32.893 11.6562)" fill="#FF1744" width="2.6" height="8.8"/>
</g>
<g>
	<rect x="22.7" y="0" fill="#90A4AE" width="2.6" height="8.8"/>
	<rect x="39.2" y="22.7" fill="#90A4AE" width="8.8" height="2.6"/>
	<rect x="32.6" y="2.7" transform="matrix(-0.862 -0.507 0.507 -0.862 59.5485 30.45)" fill="#90A4AE" width="2.6" height="8.8"/>
	<rect x="13" y="2.6" transform="matrix(-0.8689 0.495 -0.495 -0.8689 30.1912 6.003)" fill="#90A4AE" width="2.6" height="8.8"/>
	<rect x="5.8" y="9.8" transform="matrix(-0.5 0.866 -0.866 -0.5 22.8739 15.2384)" fill="#90A4AE" width="2.6" height="8.8"/>
	
		<rect x="40.1" y="28.5" transform="matrix(0.4568 -0.8896 0.8896 0.4568 -6.7984 54.6995)" fill="#90A4AE" width="2.6" height="8.9"/>
</g>
<path fill="#4DD0E1" d="M23.4,22.9c-0.6,0.3-0.8,1.1-0.4,1.7c0.4,0.6,1.1,0.8,1.7,0.5c0.6-0.3,0.8-1.1,0.4-1.7
	C24.8,22.8,24,22.6,23.4,22.9"/>
<path fill="#00ACC1" d="M24,0C10.7,0,0,10.7,0,24s10.7,24,24,24s24-10.7,24-24S37.3,0,24,0z M24,42.9C13.5,42.9,5.1,34.5,5.1,24
	S13.5,5.1,24,5.1S42.9,13.5,42.9,24S34.5,42.9,24,42.9z"/>
</svg>
