<?xml version="1.0" encoding="utf-8"?>
<!-- Generator: Adobe Illustrator 18.0.0, SVG Export Plug-In . SVG Version: 6.00 Build 0)  -->
<!DOCTYPE svg PUBLIC "-//W3C//DTD SVG 1.1//EN" "http://www.w3.org/Graphics/SVG/1.1/DTD/svg11.dtd">
<svg version="1.1" id="Layer_1" xmlns="http://www.w3.org/2000/svg" xmlns:xlink="http://www.w3.org/1999/xlink" x="0px" y="0px"
	 viewBox="0 0 612 792" enable-background="new 0 0 612 792" xml:space="preserve">
<g opacity="0.2">
	<path fill="#565656" d="M336.5,446.1c-16.8,0-34-3.7-45.5-9.4l9.9-25.4c12.7,4.2,25.8,7,40.8,7c16.8,0,20.7-3.3,22.9-15.6
		c2.3-13.2,2-14.7-21-20c-33.9-7.6-37.9-14.7-32.4-46.2c5.1-29.2,17.5-40.7,57.5-40.7c12.8,0,27.8,1.3,43.4,4.8l-8.2,27.6
		c-16.1-2.9-26.7-4.2-39.8-4.2c-14.7,0-18.4,2.6-20.3,13.3c-2.5,14-1.9,14.3,20.1,19.7c37.7,9.4,38.4,17.1,33.3,45.8
		C392.4,431.9,380.5,446.1,336.5,446.1z"/>
	<path fill="#565656" d="M494.4,327.1l-20.6,116.8H441l20.6-116.8h-39.2l5.1-29.2h111.3l-5.1,29.2H494.4z"/>
	<path fill="#565656" d="M531,443.9L556.8,298h32.9l-25.8,145.9H531z"/>
</g>
<g opacity="0.2">
	<path fill="#565656" d="M226.1,295.8h-4.3h-70.2L125.6,443h74.8l2-11.7h-63.1l10.1-57.5H208l2-11.7h-58.5l9.6-54.6h58.5h4.3h36.4
		l-22,124.9c-4.7,2-7.8,6.9-6.9,12.5c0.8,4.5,4.2,8.2,8.8,9.2c7.3,1.5,13.9-4,13.9-11.1c0-3.6-1.6-6.7-4.2-8.8l22.4-126.6H313
		l3.8-4.5c3.1-2.3,3.7-7.1-0.1-7.1L226.1,295.8L226.1,295.8z"/>
	<path fill="#565656" d="M144.7,295.8c0-6.3-5.1-11.4-11.4-11.4c-6.3,0-11.4,5.1-11.4,11.4c0,3.7,1.8,7,4.5,9.1l-22.1,125.5
		L65.2,295.8H48.1L24,432.3c-4.4,1.5-7.6,5.8-7.6,10.7c0,6.3,5.1,11.4,11.4,11.4s11.4-5.1,11.4-11.4c0-3.7-1.7-6.9-4.3-8.9L57,308.6
		L96.1,443h17.1l24.1-136.6C141.6,304.8,144.7,300.6,144.7,295.8z"/>
</g>
<g opacity="0.2">
	<path fill="#565656" d="M23,477.7h8.1c6.7,0,7.7,6.5,7.7,11c0,4.9-2,10.8-7.7,10.8H23C23,499.4,23,477.7,23,477.7z M31.1,497.2
		c3.9,0,5.5-4,5.5-8.5c0-6.4-2.1-8.8-5.5-8.8h-5.9v17.3H31.1z"/>
	<path fill="#565656" d="M54.5,477.7h2.2v21.8h-2.2V477.7z"/>
	<path fill="#565656" d="M79,477.4c1.5,0,5.4,0.4,7.6,0.8v1.8c-0.2,0-4.6-0.3-7.6-0.3c-3.9,0-4.8,2.9-4.8,8.8c0,6.6,1.2,8.8,4.8,8.9
		c2.3,0,5.7-1.4,5.7-1.4v-5.9h-5v-1.4c1.2-0.3,2.8-0.8,5.2-0.8c0.6,0,1.3,0,2,0.1v11.5h-1.7l-0.5-1.4c-1.1,0.6-3.1,1.6-5.8,1.6
		c-6.1,0.1-7.1-4.8-7.1-11.1C72,482.5,73.1,477.4,79,477.4z"/>
	<path fill="#565656" d="M102.9,477.7h2.2v21.8h-2.2V477.7z"/>
	<path fill="#565656" d="M120.2,477.7h15.1v2.2h-6.5v19.6h-2.2v-19.6h-6.4V477.7z"/>
	<path fill="#565656" d="M153.9,477.7h2.2l7.6,21.8h-2.6l-1.9-6h-8.7l-2,6h-2.7L153.9,477.7z M158.4,491.2l-3.5-10.1l-3.7,10.1
		H158.4z"/>
	<path fill="#565656" d="M178.7,477.7h2.2v18c0,1.6,1,1.5,1.9,1.5h9.1v2.2h-9.1c-2,0-4.1-0.4-4.1-3.7V477.7z"/>
	<path fill="#565656" d="M207.1,477.7h2.2v21.8h-2.2V477.7z"/>
	<path fill="#565656" d="M224.1,497.2l11.8-17.3h-11.8v-2.2h14.7v2.2L227,497.2h11.8v2.2h-14.7V497.2z"/>
	<path fill="#565656" d="M261,477.7h2.2l7.6,21.8h-2.6l-1.9-6h-8.7l-2,6H253L261,477.7z M265.6,491.2l-3.5-10.1l-3.6,10.1H265.6z"/>
	<path fill="#565656" d="M304.2,477.7h15.1v2.2h-6.5v19.6h-2.2v-19.6h-6.4V477.7z"/>
	<path fill="#565656" d="M334.4,477.7h2.2v12.2c0,7.6,2.4,7.5,5.9,7.5c3,0,5.7-0.1,5.7-7.5v-12.2h2.2v12.2c0,9.6-4.3,9.7-7.9,9.7
		c-4.1,0-8.1,0.3-8.1-9.7L334.4,477.7L334.4,477.7z"/>
	<path fill="#565656" d="M385.7,481.5c0-2.9,1.8-4,3.7-3.9l9.4,0.5v1.7h-9.4c-1.5,0-1.5,0.8-1.5,1.7v6l9.8,0.3v1.8l-9.8,0.3v5.9
		c0,1.6,1,1.5,1.9,1.5h9.1v1.7l-9.1,0.5c-2,0.1-4.1-0.4-4.1-3.7L385.7,481.5L385.7,481.5z"/>
	<path fill="#565656" d="M415.2,477.7h3.1l5.8,18.1l5.6-18.1h3l1.7,21.8h-2.2l-1.4-17.8l-5.6,17.8h-2.3l-5.8-17.8l-1.2,17.8h-2.2
		L415.2,477.7z"/>
	<path fill="#565656" d="M449.7,477.7h8.9c2.4,0,5.2,1,5.2,6.3c0,6.2-3,6.6-5.2,6.6c-1.2,0-6.6-0.5-6.7-0.6v9.4h-2.2V477.7z
		 M458.6,488.4c1.5,0,3-0.4,3-4.4c-0.1-3.9-2-4.1-3-4.1h-6.7v8.5H458.6z"/>
	<path fill="#565656" d="M478.8,477.7h9.3c2.8,0,5,1.6,5,6.5c0,5.7-3,6.1-3.7,6.3l4.6,9h-2.4l-4.6-8.9l-5.9-0.4v9.4h-2.2
		L478.8,477.7L478.8,477.7z M488.1,488.2c1.4,0,2.8,0,2.8-4c0-3.9-1.5-4.3-2.8-4.3H481v8.2L488.1,488.2L488.1,488.2z"/>
	<path fill="#565656" d="M509,481.5c0-2.9,1.8-4,3.7-3.9l9.4,0.5v1.7h-9.4c-1.5,0-1.5,0.8-1.5,1.7v6l9.8,0.3v1.8l-9.8,0.3v5.9
		c0,1.6,1,1.5,1.9,1.5h9.1v1.7l-9.1,0.5c-2,0.1-4.1-0.4-4.1-3.7L509,481.5L509,481.5z"/>
	<path fill="#565656" d="M537.3,482.8c0-4.3,2.6-5.3,5.9-5.3c1.6,0,6.3,0.6,7.5,0.7v1.8c-1.9-0.1-7.5-0.3-7.5-0.3
		c-2.1-0.1-3.7,0.1-3.7,3.1v2c0,2.7,1.3,2.9,3.1,2.9h4.2c4,0,4.7,2.7,4.7,5.1v2c0,4.2-3.1,4.8-6,4.8c-1.4,0-6-0.5-7.5-0.8v-1.7
		c1.2,0.1,4.7,0.3,7.5,0.3c1.2,0,3.8-0.1,3.8-2.7v-2c0-1.7-0.5-2.9-2.5-2.9h-4.2c-4.8,0-5.3-2.6-5.3-5.1L537.3,482.8L537.3,482.8z"
		/>
	<path fill="#565656" d="M573.1,477.7h2.2l7.6,21.8h-2.6l-1.9-6h-8.7l-2,6h-2.7L573.1,477.7z M577.7,491.2l-3.5-10.1l-3.6,10.1
		H577.7z"/>
</g>
</svg>
