<?xml version="1.0" encoding="utf-8"?>
<!-- Generator: Adobe Illustrator 18.0.0, SVG Export Plug-In . SVG Version: 6.00 Build 0)  -->
<!DOCTYPE svg PUBLIC "-//W3C//DTD SVG 1.1//EN" "http://www.w3.org/Graphics/SVG/1.1/DTD/svg11.dtd">
<svg version="1.1" id="Layer_1" xmlns="http://www.w3.org/2000/svg" xmlns:xlink="http://www.w3.org/1999/xlink" x="0px" y="0px"
	 viewBox="0 0 96 96" enable-background="new 0 0 96 96" xml:space="preserve">
<g>
	<g>
		<path fill="#FFA000" d="M77.1,21H41l-9-9H9.5c-5,0-9,4.1-9,9V75c0,5,4.1,9,9,9h69.8c3.8,0,6.8-2.9,6.8-6.8V30
			C86.1,25,82,21,77.1,21z"/>
	</g>
	<g>
		<path fill="#FFCA28" d="M86.5,34.5H26c-4.3,0-8.1,3.2-8.8,7.4L9.5,84h71.4c4.3,0,8.1-3.2,8.8-7.4l5.6-31.5
			C96.4,39.7,92.2,34.5,86.5,34.5z"/>
	</g>
</g>
</svg>
