<?xml version="1.0" encoding="utf-8"?>
<!-- Generator: Adobe Illustrator 18.0.0, SVG Export Plug-In . SVG Version: 6.00 Build 0)  -->
<!DOCTYPE svg PUBLIC "-//W3C//DTD SVG 1.1//EN" "http://www.w3.org/Graphics/SVG/1.1/DTD/svg11.dtd">
<svg version="1.1" id="Layer_1" xmlns="http://www.w3.org/2000/svg" xmlns:xlink="http://www.w3.org/1999/xlink" x="0px" y="0px"
	 viewBox="0 0 96 96" enable-background="new 0 0 96 96" xml:space="preserve">
<g>
	<g>
		<path fill="#FFA726" d="M25.8,54.7c0,4.9-4,8.9-8.9,8.9S8,59.6,8,54.7s4-8.9,8.9-8.9S25.8,49.8,25.8,54.7"/>
		<path fill="#FFA726" d="M88,54.7c0,4.9-4,8.9-8.9,8.9c-4.9,0-8.9-4-8.9-8.9s4-8.9,8.9-8.9C84,45.8,88,49.8,88,54.7"/>
	</g>
	<path fill="#FFB74D" d="M14.7,39.1c0-28.3,66.7-18.4,66.7,0v22.2c0,18.4-14.9,33.3-33.3,33.3S14.7,79.7,14.7,61.3V39.1z"/>
	<path fill="#424242" d="M85.5,37.6c-1.1-13.3-5.7-26.3-22-29.6l-4.4-6.7H48c-20.5,0-37.8,16.6-37.8,40v7.6l6.7,8V43.6L63.6,28
		l15.6,13.3v15.6l6.7-8v-7.6C85.8,40.1,85.7,38.9,85.5,37.6"/>
	<g>
		<path fill="#784719" d="M68,56.9c0,2.5-2,4.4-4.4,4.4c-2.5,0-4.4-2-4.4-4.4s2-4.4,4.4-4.4C66,52.4,68,54.4,68,56.9"/>
		<path fill="#784719" d="M36.9,56.9c0,2.5-2,4.4-4.4,4.4s-4.4-2-4.4-4.4s2-4.4,4.4-4.4S36.9,54.4,36.9,56.9"/>
	</g>
	<path fill="#FB8C00" d="M36.9,76.9h22.2c0,0-4.4,6.7-11.1,6.7S36.9,76.9,36.9,76.9z"/>
</g>
</svg>
